HIERARCHY
ROOT joint_Root
{
	OFFSET 0.0 0.0 0.0
	CHANNELS 6 Xposition Yposition Zposition Zrotation Xrotation Yrotation 
	JOINT Hips
	{
		OFFSET 4.5925 91.4895 -427.239
		CHANNELS 6 Xposition Yposition Zposition Zrotation Xrotation Yrotation 
		JOINT Spine
		{
			OFFSET 15.7357 0.0 0.0
			CHANNELS 6 Xposition Yposition Zposition Zrotation Xrotation Yrotation 
			JOINT Chest
			{
				OFFSET 8.98455 -0.406207 0.0
				CHANNELS 6 Xposition Yposition Zposition Zrotation Xrotation Yrotation 
				JOINT Neck
				{
					OFFSET 16.3773 0.0 0.0
					CHANNELS 6 Xposition Yposition Zposition Zrotation Xrotation Yrotation 
					JOINT Head
					{
						OFFSET 6.45672 0.0 0.0
						CHANNELS 6 Xposition Yposition Zposition Zrotation Xrotation Yrotation 
						End Site
						{
							OFFSET 0.0 0.0 0.0
						}
					}
				}
				JOINT Shoulder_L
				{
					OFFSET 12.9942 -0.242716 4.98039
					CHANNELS 6 Xposition Yposition Zposition Zrotation Xrotation Yrotation 
					JOINT UpperArm_L
					{
						OFFSET 5.34809 0.0 0.0
						CHANNELS 6 Xposition Yposition Zposition Zrotation Xrotation Yrotation 
						JOINT LowerArm_L
						{
							OFFSET 24.3286 1.87007e-05 0.0
							CHANNELS 6 Xposition Yposition Zposition Zrotation Xrotation Yrotation 
							JOINT Hand_L
							{
								OFFSET 22.2916 0.0 0.0
								CHANNELS 6 Xposition Yposition Zposition Zrotation Xrotation Yrotation 
								End Site
								{
									OFFSET 0.0 0.0 0.0
								}
							}
						}
					}
				}
				JOINT Shoulder_R
				{
					OFFSET 12.9945 -0.242716 -4.98039
					CHANNELS 6 Xposition Yposition Zposition Zrotation Xrotation Yrotation 
					JOINT UpperArm_R
					{
						OFFSET -5.34813 0.0 0.0
						CHANNELS 6 Xposition Yposition Zposition Zrotation Xrotation Yrotation 
						JOINT LowerArm_R
						{
							OFFSET -24.3289 0.000322201 0.0
							CHANNELS 6 Xposition Yposition Zposition Zrotation Xrotation Yrotation 
							JOINT Hand_R
							{
								OFFSET -22.2915 -0.000108084 0.0
								CHANNELS 6 Xposition Yposition Zposition Zrotation Xrotation Yrotation 
								End Site
								{
									OFFSET 0.0 0.0 0.0
								}
							}
						}
					}
				}
			}
		}
		JOINT UpperLeg_L
		{
			OFFSET -2.19248 -6.46944 0.0
			CHANNELS 6 Xposition Yposition Zposition Zrotation Xrotation Yrotation 
			JOINT LowerLeg_L
			{
				OFFSET 39.0811 0.0 -1.23785e-05
				CHANNELS 6 Xposition Yposition Zposition Zrotation Xrotation Yrotation 
				JOINT Foot_L
				{
					OFFSET 40.9854 0.0 -1.26872e-05
					CHANNELS 6 Xposition Yposition Zposition Zrotation Xrotation Yrotation 
					JOINT Toes_L
					{
						OFFSET 11.7543 0.0 0.0
						CHANNELS 6 Xposition Yposition Zposition Zrotation Xrotation Yrotation 
						End Site
						{
							OFFSET 0.0 0.0 0.0
						}
					}
				}
			}
		}
		JOINT UpperLeg_R
		{
			OFFSET -2.19251 6.46944 0.0
			CHANNELS 6 Xposition Yposition Zposition Zrotation Xrotation Yrotation 
			JOINT LowerLeg_R
			{
				OFFSET -39.0811 -0.00228153 -0.0401928
				CHANNELS 6 Xposition Yposition Zposition Zrotation Xrotation Yrotation 
				JOINT Foot_R
				{
					OFFSET -40.9854 0.0 0.0
					CHANNELS 6 Xposition Yposition Zposition Zrotation Xrotation Yrotation 
					JOINT Toes_R
					{
						OFFSET -11.7543 0.0 0.0
						CHANNELS 6 Xposition Yposition Zposition Zrotation Xrotation Yrotation 
						End Site
						{
							OFFSET 0.0 0.0 0.0
						}
					}
				}
			}
		}
	}
}
MOTION
Frames:	4
Frame Time:	0.0333333
0.000000 0.000000 0.000000 0.000000 0.000000 -0.000000 -1.741390 91.387000 3.769350 89.379700 -4.110080 6.554920 15.735700 0.000005 -0.000001 81.669600 84.642200 -81.060200 8.984550 -0.406207 -0.000000 2.846230 -1.577190 1.256820 16.377300 -0.000001 -0.000001 1.909210 -0.488157 0.071182 6.456720 -0.000001 -0.000000 -8.640030 -0.221679 5.700810 12.994200 -0.242716 4.980390 -91.943100 7.042270 -74.532500 5.348090 -0.000007 -0.000001 -63.507900 37.977700 -11.102000 24.328600 0.000019 0.000005 11.565400 24.426900 -26.329100 22.291600 -0.000001 0.000005 6.684870 5.282990 0.544226 12.994500 -0.242716 -4.980390 88.087900 12.929900 -81.514200 -5.348130 -0.000001 -0.000004 -61.877600 35.485200 -7.413060 -24.328900 0.000322 -0.000009 1.836160 5.211980 -19.448400 -22.291500 -0.000108 -0.000004 12.136800 5.384640 -2.444670 -2.192480 -6.469440 -0.000000 -173.880000 -15.657000 2.614170 39.081100 -0.000007 -0.000012 -0.163888 0.355039 24.778500 40.985400 -0.000006 -0.000013 0.329996 8.344050 -70.284000 11.754300 -0.000000 0.000003 -0.000207 -0.001905 -16.649400 -2.192510 6.469440 -0.000001 173.267000 24.695700 -175.698000 -39.081100 -0.002282 -0.040193 -0.192700 0.446878 23.684000 -40.985400 0.000008 0.000006 3.974830 19.503300 -70.808900 -11.754300 -0.000006 -0.000006 -0.000850 -0.013258 -17.112400
0.000000 0.000000 0.000000 0.000000 0.000000 -0.000000 -1.779210 91.392800 3.719880 89.395300 -4.039080 6.574210 15.735700 0.000005 -0.000001 81.152500 84.616700 -80.492800 8.984550 -0.406207 -0.000000 2.883630 -1.682490 1.360310 16.377300 -0.000001 -0.000001 1.877720 -0.523856 0.183774 6.456720 -0.000001 -0.000000 -8.625040 -0.171009 5.859760 12.994200 -0.242716 4.980390 -91.933800 7.058710 -74.636500 5.348090 -0.000007 -0.000001 -62.965600 38.312200 -11.701900 24.328600 0.000019 0.000005 11.802000 24.061900 -27.134100 22.291600 -0.000001 0.000005 6.573800 5.296460 0.171340 12.994500 -0.242716 -4.980390 88.089200 12.912700 -81.508900 -5.348130 -0.000001 -0.000004 -61.866300 35.460500 -7.399980 -24.328900 0.000322 -0.000009 1.844390 5.244560 -19.417200 -22.291500 -0.000108 -0.000004 12.054000 5.384390 -2.436830 -2.192480 -6.469440 -0.000000 -173.890000 -15.532000 2.583850 39.081100 -0.000007 -0.000012 -0.164550 0.356599 24.770800 40.985400 -0.000006 -0.000013 0.290040 8.304130 -70.231900 11.754300 -0.000000 0.000003 -0.000199 -0.001840 -16.647000 -2.192510 6.469440 -0.000001 173.292000 24.729300 -175.715000 -39.081100 -0.002282 -0.040193 -0.190748 0.442132 23.698100 -40.985400 0.000008 0.000006 4.007450 19.461300 -70.800200 -11.754300 -0.000006 -0.000006 -0.000723 -0.011397 -17.036800
0.000000 0.000000 0.000000 0.000000 0.000000 -0.000000 -1.826640 91.386800 3.673910 89.409200 -3.948970 6.614310 15.735700 0.000005 -0.000001 80.799300 84.578800 -80.100500 8.984550 -0.406207 -0.000000 2.949170 -1.761270 1.441430 16.377300 -0.000001 -0.000001 1.816630 -0.615884 0.315228 6.456720 -0.000001 -0.000000 -8.606800 -0.162343 6.115230 12.994200 -0.242716 4.980390 -91.931500 7.040850 -74.616900 5.348090 -0.000007 -0.000001 -62.155900 38.270600 -12.754900 24.328600 0.000019 0.000005 12.087000 23.550100 -28.189400 22.291600 -0.000001 0.000005 6.385300 5.307250 -0.132462 12.994500 -0.242716 -4.980390 88.082000 12.899900 -81.468900 -5.348130 -0.000001 -0.000004 -61.849600 35.568500 -7.367930 -24.328900 0.000322 -0.000009 1.838650 5.241920 -19.370200 -22.291500 -0.000108 -0.000004 12.121200 5.382550 -2.378730 -2.192480 -6.469440 -0.000000 -173.873000 -15.473700 2.536220 39.081100 -0.000007 -0.000012 -0.165724 0.357924 24.845000 40.985400 -0.000006 -0.000013 0.271465 8.338390 -70.218400 11.754300 -0.000000 0.000003 -0.000219 -0.001998 -16.652700 -2.192510 6.469440 -0.000001 173.317000 24.757800 -175.740000 -39.081100 -0.002282 -0.040193 -0.189663 0.437848 23.785300 -40.985400 0.000008 0.000006 4.046790 19.373700 -70.832900 -11.754300 -0.000006 -0.000006 -0.000640 -0.010148 -16.986000
0.000000 0.000000 0.000000 0.000000 0.000000 -0.000000 -1.878880 91.395600 3.611390 89.438200 -3.774580 6.622270 15.735700 0.000005 -0.000001 80.630100 84.558100 -79.905600 8.984550 -0.406207 -0.000000 2.985630 -1.800410 1.494570 16.377300 -0.000001 -0.000001 1.781020 -0.704975 0.424974 6.456720 -0.000001 -0.000000 -8.434410 -0.317292 6.496220 12.994200 -0.242716 4.980390 -91.938800 7.023310 -74.525400 5.348090 -0.000007 -0.000001 -61.109600 37.362200 -14.389500 24.328600 0.000019 0.000005 13.026100 23.951400 -29.677600 22.291600 -0.000001 0.000005 6.161540 5.312750 -0.287849 12.994500 -0.242716 -4.980390 88.071100 12.900000 -81.421500 -5.348130 -0.000001 -0.000004 -61.952500 35.355900 -7.166500 -24.328900 0.000322 -0.000009 1.869120 5.345690 -19.314500 -22.291500 -0.000108 -0.000004 12.150300 5.384110 -2.427850 -2.192480 -6.469440 -0.000000 -173.895000 -15.314300 2.472020 39.081100 -0.000007 -0.000012 -0.166315 0.359468 24.828700 40.985400 -0.000006 -0.000013 0.243701 8.372940 -70.142900 11.754300 -0.000000 0.000003 -0.000201 -0.001860 -16.647700 -2.192510 6.469440 -0.000001 173.318000 24.883300 -175.740000 -39.081100 -0.002282 -0.040193 -0.190818 0.440586 23.779600 -40.985400 0.000008 0.000006 4.067380 19.296900 -70.817000 -11.754300 -0.000006 -0.000006 -0.000832 -0.012987 -17.101400
